<svg xmlns="http://www.w3.org/2000/svg" width="24" height="24.022" viewBox="0 0 24 24.022"><defs></defs><g transform="translate(-24 -687.898)"><path class="a" fill="#ff8f00" d="M183.057,236.731h-7.09a1,1,0,1,1,0-1.993h7.09a1,1,0,0,1,0,1.993Z" transform="translate(-138.126 470.226)"/><path class="a" fill="#ff8f00" d="M343.035,119.329a1,1,0,0,1-.7-1.706l3.5-3.5-3.5-3.576a1,1,0,1,1,1.4-1.419l4.216,4.286a1,1,0,0,1,0,1.419l-4.216,4.207A.992.992,0,0,1,343.035,119.329Z" transform="translate(-300.247 591.836)"/><path class="b" fill="#c50178" d="M8,24.022,3.143,24A3.145,3.145,0,0,1,0,20.857V3.143A3.145,3.145,0,0,1,3.143,0H16.286a3.145,3.145,0,0,1,3.143,3.143V8.022a.857.857,0,1,1-1.714,0V3.143a1.431,1.431,0,0,0-1.429-1.429H3.143A1.431,1.431,0,0,0,1.714,3.143V20.857a1.431,1.431,0,0,0,1.429,1.429L8,22.308a.857.857,0,0,1,0,1.714Z" transform="translate(24 687.898)"/></g></svg>